<?xml version="1.0" encoding="UTF-8"?>
<!DOCTYPE svg PUBLIC "-//W3C//DTD SVG 1.1//EN" "http://www.w3.org/Graphics/SVG/1.1/DTD/svg11.dtd">
<svg xmlns="http://www.w3.org/2000/svg" version="1.2" viewBox="0 0 22300 8500" fill="none" stroke="none">
	<g fill="#000000">
		<path d="M6809,3439L6809,3785,6758,3785,6758,3379,6837,3379,6937,3690C6940,3698,6942,3705,6944,3710,6945,3715,6946,3719,6947,3723,6948,3716,6950,3710,6951,3705,6953,3699,6954,3694,6956,3690L7060,3379,7139,3379,7139,3785,7086,3785,7086,3439C7084,3445,7083,3451,7081,3457,7079,3463,7078,3469,7076,3475L6972,3785,6920,3785,6818,3475C6816,3469,6814,3464,6813,3458,6811,3452,6810,3446,6809,3439Z"/>
		<path d="M7399,3746C7384,3762,7367,3774,7350,3782,7333,3790,7315,3794,7295,3794,7265,3794,7242,3786,7225,3770,7208,3755,7200,3733,7200,3705,7200,3679,7208,3658,7225,3642,7241,3627,7267,3617,7301,3613,7309,3612,7321,3611,7335,3609,7360,3607,7375,3604,7381,3602,7387,3599,7391,3597,7392,3593,7394,3589,7395,3581,7395,3569,7395,3554,7390,3543,7379,3535,7368,3528,7351,3524,7329,3524,7307,3524,7289,3529,7278,3538,7266,3547,7261,3561,7261,3579L7214,3579,7214,3577C7214,3547,7224,3523,7245,3506,7266,3489,7294,3480,7331,3480,7370,3480,7399,3487,7418,3502,7436,3517,7446,3540,7446,3572L7446,3720C7446,3733,7447,3741,7450,3744,7452,3748,7457,3750,7465,3750,7466,3750,7468,3750,7470,3750,7472,3749,7475,3749,7478,3748L7478,3786C7471,3788,7466,3789,7462,3790,7457,3791,7453,3791,7449,3791,7432,3791,7420,3787,7412,3780,7403,3773,7399,3762,7399,3748L7399,3746ZM7395,3635C7381,3642,7359,3647,7327,3651,7315,3653,7307,3654,7301,3655,7283,3658,7270,3663,7262,3671,7254,3679,7251,3690,7251,3704,7251,3719,7255,3730,7264,3738,7273,3746,7287,3750,7304,3750,7330,3750,7352,3743,7369,3730,7386,3717,7395,3700,7395,3679L7395,3635Z"/>
		<path d="M7882,3785L7882,3604C7882,3574,7877,3554,7869,3543,7861,3532,7847,3527,7827,3527,7803,3527,7785,3534,7771,3549,7758,3564,7752,3585,7752,3611L7752,3785,7702,3785,7702,3604C7702,3574,7697,3554,7689,3543,7681,3532,7667,3527,7647,3527,7624,3527,7605,3534,7592,3549,7578,3564,7572,3585,7572,3611L7572,3785,7522,3785,7522,3490,7569,3490,7569,3532C7580,3516,7593,3503,7608,3495,7623,3487,7641,3483,7661,3483,7680,3483,7695,3487,7708,3494,7721,3502,7733,3514,7742,3530,7755,3514,7769,3502,7784,3494,7800,3487,7817,3483,7837,3483,7856,3483,7873,3486,7887,3493,7901,3500,7912,3510,7920,3523,7924,3531,7927,3540,7929,3550,7931,3561,7932,3577,7932,3600L7932,3609,7932,3785,7882,3785Z"/>
		<path d="M8012,3785C8012,3650,8012,3514,8012,3379,8030,3379,8048,3379,8067,3379,8067,3514,8067,3650,8067,3785,8048,3785,8030,3785,8012,3785Z"/>
		<path d="M8209,3427L8209,3564,8302,3564C8336,3564,8360,3559,8374,3548,8388,3537,8396,3518,8396,3493,8396,3469,8389,3452,8376,3442,8362,3432,8338,3427,8302,3427L8209,3427ZM8155,3379L8311,3379C8337,3379,8356,3380,8368,3382,8380,3385,8391,3388,8400,3393,8417,3403,8430,3416,8439,3432,8448,3449,8453,3469,8453,3491,8453,3513,8448,3532,8438,3547,8429,3563,8415,3575,8397,3584,8412,3588,8423,3596,8430,3606,8437,3617,8441,3635,8443,3660L8447,3727C8448,3741,8450,3752,8453,3759,8456,3766,8461,3771,8467,3774L8467,3785,8402,3785C8397,3777,8393,3758,8391,3731,8391,3730,8391,3729,8391,3729L8388,3676C8386,3649,8380,3631,8370,3623,8361,3615,8337,3611,8298,3611L8210,3611,8210,3785,8155,3785,8155,3379Z"/>
		<path d="M8812,3634L8865,3634C8862,3683,8845,3723,8814,3752,8783,3781,8742,3796,8693,3796,8635,3796,8591,3777,8558,3738,8526,3699,8510,3645,8510,3576,8510,3513,8526,3462,8560,3425,8594,3388,8640,3369,8698,3369,8744,3369,8781,3381,8811,3404,8840,3428,8857,3460,8862,3501L8808,3501C8802,3474,8790,3454,8771,3440,8751,3425,8726,3418,8695,3418,8654,3418,8622,3432,8600,3461,8577,3490,8566,3531,8566,3583,8566,3633,8577,3672,8601,3702,8625,3732,8656,3747,8695,3747,8729,3747,8756,3737,8777,3716,8799,3695,8810,3668,8812,3634Z"/>
		<path d="M6805,4206L6858,4206C6855,4255,6838,4295,6807,4324,6776,4353,6735,4368,6686,4368,6628,4368,6584,4349,6551,4310,6519,4271,6503,4217,6503,4148,6503,4085,6519,4034,6553,3997,6587,3960,6633,3941,6691,3941,6737,3941,6774,3953,6804,3976,6833,4000,6850,4032,6855,4073L6801,4073C6795,4046,6783,4026,6764,4012,6744,3997,6719,3990,6688,3990,6647,3990,6615,4004,6593,4033,6570,4062,6559,4103,6559,4155,6559,4205,6570,4244,6594,4274,6618,4304,6649,4319,6688,4319,6722,4319,6749,4309,6770,4288,6792,4267,6803,4240,6805,4206Z"/>
		<path d="M6953,4209C6953,4245,6960,4273,6976,4293,6992,4312,7014,4322,7044,4322,7073,4322,7095,4312,7110,4293,7126,4273,7134,4245,7134,4209,7134,4172,7126,4145,7110,4125,7095,4106,7073,4096,7044,4096,7014,4096,6992,4106,6976,4125,6960,4144,6953,4172,6953,4209ZM6902,4209C6902,4159,6914,4121,6939,4093,6963,4066,6998,4052,7043,4052,7088,4052,7122,4066,7147,4093,7172,4121,7185,4159,7185,4209,7185,4258,7172,4297,7147,4325,7123,4352,7088,4366,7043,4366,6998,4366,6964,4352,6939,4325,6914,4297,6902,4259,6902,4209Z"/>
		<path d="M7439,4357L7439,4176C7439,4147,7434,4127,7425,4116,7416,4105,7401,4099,7380,4099,7352,4099,7331,4107,7315,4123,7300,4138,7293,4160,7293,4189L7293,4357,7243,4357,7243,4062,7290,4062,7290,4105C7302,4088,7315,4076,7331,4067,7346,4059,7364,4055,7385,4055,7407,4055,7425,4058,7441,4065,7456,4072,7467,4082,7476,4095,7480,4102,7483,4111,7485,4120,7487,4130,7489,4145,7489,4166L7489,4180,7489,4357,7439,4357Z"/>
		<path d="M7761,4357L7761,4176C7761,4147,7756,4127,7747,4116,7738,4105,7723,4099,7702,4099,7674,4099,7653,4107,7637,4123,7622,4138,7615,4160,7615,4189L7615,4357,7565,4357,7565,4062,7612,4062,7612,4105C7624,4088,7637,4076,7653,4067,7668,4059,7686,4055,7707,4055,7729,4055,7747,4058,7763,4065,7778,4072,7789,4082,7798,4095,7802,4102,7805,4111,7807,4120,7809,4130,7811,4145,7811,4166L7811,4180,7811,4357,7761,4357Z"/>
		<path d="M7924,4183L8086,4183C8086,4155,8079,4134,8066,4119,8052,4104,8032,4096,8007,4096,7982,4096,7963,4103,7949,4118,7935,4133,7927,4155,7924,4183ZM8085,4262L8135,4262C8129,4295,8115,4320,8092,4339,8069,4358,8040,4367,8005,4367,7964,4367,7932,4353,7908,4326,7884,4298,7872,4260,7872,4213,7872,4162,7884,4123,7908,4095,7931,4066,7964,4052,8005,4052,8048,4052,8080,4065,8104,4091,8127,4117,8138,4154,8138,4202,8138,4208,8138,4213,8138,4215,8138,4218,8138,4221,8138,4224L7925,4224C7925,4255,7933,4279,7948,4296,7963,4313,7983,4322,8010,4322,8030,4322,8047,4317,8060,4306,8073,4296,8082,4281,8085,4262Z"/>
		<path d="M8392,4160C8390,4140,8383,4124,8370,4113,8356,4102,8338,4097,8316,4097,8289,4097,8268,4107,8253,4126,8239,4145,8232,4173,8232,4209,8232,4245,8239,4272,8253,4292,8267,4311,8287,4321,8313,4321,8336,4321,8355,4315,8369,4303,8383,4291,8391,4274,8395,4251L8442,4251C8439,4287,8426,4315,8403,4336,8380,4356,8349,4366,8310,4366,8270,4366,8238,4352,8215,4324,8192,4297,8181,4259,8181,4210,8181,4161,8193,4122,8217,4094,8241,4066,8274,4052,8316,4052,8353,4052,8383,4062,8405,4081,8427,4101,8439,4127,8441,4160L8392,4160Z"/>
		<path d="M8550,4283C8550,4296,8551,4305,8555,4309,8559,4314,8566,4316,8576,4316,8579,4316,8582,4316,8586,4316,8591,4316,8596,4315,8603,4315L8603,4357C8594,4358,8587,4359,8580,4360,8574,4361,8568,4361,8563,4361,8539,4361,8523,4357,8514,4348,8504,4339,8500,4323,8500,4300L8500,4101,8456,4101,8456,4062,8500,4062,8500,3980,8550,3980,8550,4062,8603,4062,8603,4101,8550,4101,8550,4283Z"/>
		<path d="M8685,4209C8685,4245,8692,4273,8708,4293,8724,4312,8746,4322,8776,4322,8805,4322,8827,4312,8842,4293,8858,4273,8866,4245,8866,4209,8866,4172,8858,4145,8842,4125,8827,4106,8805,4096,8776,4096,8746,4096,8724,4106,8708,4125,8692,4144,8685,4172,8685,4209ZM8634,4209C8634,4159,8646,4121,8671,4093,8695,4066,8730,4052,8775,4052,8820,4052,8854,4066,8879,4093,8904,4121,8917,4159,8917,4209,8917,4258,8904,4297,8879,4325,8855,4352,8820,4366,8775,4366,8730,4366,8696,4352,8671,4325,8646,4297,8634,4259,8634,4209Z"/>
		<path d="M8975,4357L8975,4062,9023,4062,9023,4116C9031,4096,9041,4081,9055,4071,9068,4061,9085,4056,9105,4056,9108,4056,9111,4056,9113,4056,9114,4056,9116,4056,9118,4057L9118,4110C9116,4109,9115,4109,9113,4109,9111,4109,9109,4109,9106,4109,9079,4109,9059,4116,9045,4131,9031,4145,9025,4166,9025,4193L9025,4357,8975,4357Z"/>
		<path d="M12009,3439L12009,3785,11957,3785,11957,3379,12037,3379,12137,3690C12140,3698,12142,3705,12144,3710,12145,3715,12146,3719,12147,3723,12148,3716,12150,3710,12151,3705,12153,3699,12154,3694,12156,3690L12260,3379,12338,3379,12338,3785,12286,3785,12286,3439C12284,3445,12283,3451,12281,3457,12279,3463,12278,3469,12276,3475L12171,3785,12120,3785,12018,3475C12016,3469,12014,3464,12013,3458,12011,3452,12010,3446,12009,3439Z"/>
		<path d="M12599,3746C12584,3762,12567,3774,12550,3782,12533,3790,12515,3794,12495,3794,12465,3794,12442,3786,12425,3770,12408,3755,12400,3733,12400,3705,12400,3679,12408,3658,12425,3642,12441,3627,12467,3617,12501,3613,12509,3612,12521,3611,12535,3609,12560,3607,12575,3604,12581,3602,12587,3599,12591,3597,12592,3593,12594,3589,12595,3581,12595,3569,12595,3554,12590,3543,12579,3535,12568,3528,12551,3524,12529,3524,12507,3524,12489,3529,12478,3538,12466,3547,12461,3561,12461,3579L12414,3579,12414,3577C12414,3547,12424,3523,12445,3506,12466,3489,12494,3480,12531,3480,12570,3480,12599,3487,12618,3502,12636,3517,12646,3540,12646,3572L12646,3720C12646,3733,12647,3741,12650,3744,12652,3748,12657,3750,12665,3750,12666,3750,12668,3750,12670,3750,12672,3749,12675,3749,12678,3748L12678,3786C12671,3788,12666,3789,12662,3790,12657,3791,12653,3791,12649,3791,12632,3791,12620,3787,12612,3780,12603,3773,12599,3762,12599,3748L12599,3746ZM12595,3635C12581,3642,12559,3647,12527,3651,12515,3653,12507,3654,12501,3655,12483,3658,12470,3663,12462,3671,12454,3679,12451,3690,12451,3704,12451,3719,12455,3730,12464,3738,12473,3746,12487,3750,12504,3750,12530,3750,12552,3743,12569,3730,12586,3717,12595,3700,12595,3679L12595,3635Z"/>
		<path d="M13082,3785L13082,3604C13082,3574,13077,3554,13069,3543,13061,3532,13047,3527,13027,3527,13003,3527,12985,3534,12971,3549,12958,3564,12952,3585,12952,3611L12952,3785,12902,3785,12902,3604C12902,3574,12897,3554,12889,3543,12881,3532,12867,3527,12847,3527,12824,3527,12805,3534,12792,3549,12778,3564,12772,3585,12772,3611L12772,3785,12722,3785,12722,3490,12769,3490,12769,3532C12780,3516,12793,3503,12808,3495,12823,3487,12841,3483,12861,3483,12880,3483,12895,3487,12908,3494,12921,3502,12933,3514,12942,3530,12955,3514,12969,3502,12984,3494,13000,3487,13017,3483,13037,3483,13056,3483,13073,3486,13087,3493,13101,3500,13112,3510,13120,3523,13124,3531,13127,3540,13129,3550,13131,3561,13132,3577,13132,3600L13132,3609,13132,3785,13082,3785Z"/>
		<path d="M13211,3785C13211,3650,13211,3514,13211,3379,13230,3379,13248,3379,13266,3379,13266,3514,13266,3650,13266,3785,13248,3785,13230,3785,13211,3785Z"/>
		<path d="M13409,3427L13409,3564,13502,3564C13536,3564,13560,3559,13574,3548,13588,3537,13596,3518,13596,3493,13596,3469,13589,3452,13576,3442,13562,3432,13538,3427,13502,3427L13409,3427ZM13355,3379L13511,3379C13537,3379,13556,3380,13568,3382,13580,3385,13591,3388,13600,3393,13617,3403,13630,3416,13639,3432,13648,3449,13653,3469,13653,3491,13653,3513,13648,3532,13638,3547,13629,3563,13615,3575,13597,3584,13612,3588,13623,3596,13630,3606,13637,3617,13641,3635,13643,3660L13647,3727C13648,3741,13650,3752,13653,3759,13656,3766,13661,3771,13667,3774L13667,3785,13602,3785C13597,3777,13593,3758,13591,3731,13591,3730,13591,3729,13591,3729L13588,3676C13586,3649,13580,3631,13570,3623,13561,3615,13537,3611,13498,3611L13410,3611,13410,3785,13355,3785,13355,3379Z"/>
		<path d="M14012,3634L14065,3634C14062,3683,14045,3723,14014,3752,13983,3781,13942,3796,13893,3796,13835,3796,13791,3777,13758,3738,13726,3699,13710,3645,13710,3576,13710,3513,13726,3462,13760,3425,13794,3388,13840,3369,13898,3369,13944,3369,13981,3381,14011,3404,14040,3428,14057,3460,14062,3501L14008,3501C14002,3474,13990,3454,13971,3440,13951,3425,13926,3418,13895,3418,13854,3418,13822,3432,13800,3461,13777,3490,13766,3531,13766,3583,13766,3633,13777,3672,13801,3702,13825,3732,13856,3747,13895,3747,13929,3747,13956,3737,13977,3716,13999,3695,14010,3668,14012,3634Z"/>
		<path d="M11827,4137L11919,4137C11951,4137,11974,4132,11986,4122,11999,4111,12006,4094,12006,4069,12006,4045,11999,4027,11987,4017,11974,4006,11953,4001,11923,4001L11827,4001,11827,4137ZM11772,4357L11772,3951,11921,3951C11945,3951,11963,3952,11976,3955,11989,3957,12000,3961,12010,3966,12027,3975,12039,3989,12048,4006,12057,4024,12062,4045,12062,4069,12062,4091,12057,4111,12048,4128,12039,4146,12027,4159,12010,4170,12000,4176,11988,4180,11975,4182,11962,4185,11940,4186,11910,4186L11827,4186,11827,4357,11772,4357Z"/>
		<path d="M12122,4357L12122,4062,12170,4062,12170,4116C12178,4096,12188,4081,12202,4071,12215,4061,12232,4056,12252,4056,12255,4056,12258,4056,12260,4056,12261,4056,12263,4056,12265,4057L12265,4110C12263,4109,12262,4109,12260,4109,12258,4109,12256,4109,12253,4109,12226,4109,12206,4116,12192,4131,12178,4145,12172,4166,12172,4193L12172,4357,12122,4357Z"/>
		<path d="M12344,4209C12344,4245,12351,4273,12367,4293,12383,4312,12405,4322,12435,4322,12464,4322,12486,4312,12501,4293,12517,4273,12525,4245,12525,4209,12525,4172,12517,4145,12501,4125,12486,4106,12464,4096,12435,4096,12405,4096,12383,4106,12367,4125,12351,4144,12344,4172,12344,4209ZM12293,4209C12293,4159,12305,4121,12330,4093,12354,4066,12389,4052,12434,4052,12479,4052,12513,4066,12538,4093,12563,4121,12576,4159,12576,4209,12576,4258,12563,4297,12538,4325,12514,4352,12479,4366,12434,4366,12389,4366,12355,4352,12330,4325,12305,4297,12293,4259,12293,4209Z"/>
		<path d="M12830,4160C12828,4140,12821,4124,12808,4113,12794,4102,12776,4097,12754,4097,12727,4097,12706,4107,12691,4126,12677,4145,12669,4173,12669,4209,12669,4245,12677,4272,12691,4292,12705,4311,12725,4321,12751,4321,12774,4321,12793,4315,12807,4303,12821,4291,12829,4274,12832,4251L12879,4251C12877,4287,12864,4315,12841,4336,12818,4356,12787,4366,12748,4366,12708,4366,12676,4352,12653,4324,12630,4297,12618,4259,12618,4210,12618,4161,12631,4122,12655,4094,12679,4066,12712,4052,12754,4052,12791,4052,12821,4062,12843,4081,12865,4101,12877,4127,12878,4160L12830,4160Z"/>
		<path d="M12968,4183L13129,4183C13129,4155,13122,4134,13109,4119,13095,4104,13075,4096,13050,4096,13025,4096,13006,4103,12992,4118,12978,4133,12970,4155,12968,4183ZM13128,4262L13177,4262C13172,4295,13158,4320,13135,4339,13112,4358,13083,4367,13048,4367,13007,4367,12975,4353,12951,4326,12927,4298,12915,4260,12915,4213,12915,4162,12927,4123,12951,4095,12974,4066,13007,4052,13048,4052,13091,4052,13123,4065,13147,4091,13170,4117,13181,4154,13181,4202,13181,4208,13181,4213,13181,4215,13181,4218,13181,4221,13181,4224L12968,4224C12968,4255,12976,4279,12991,4296,13006,4313,13027,4322,13053,4322,13073,4322,13090,4317,13103,4306,13116,4296,13125,4281,13128,4262Z"/>
		<path d="M13218,4261L13266,4261C13267,4281,13275,4296,13287,4307,13300,4317,13318,4322,13341,4322,13362,4322,13379,4318,13391,4309,13403,4301,13410,4290,13410,4275,13410,4264,13406,4256,13400,4250,13394,4244,13382,4239,13365,4235L13309,4221C13278,4213,13256,4203,13244,4191,13232,4179,13226,4161,13226,4138,13226,4112,13235,4091,13255,4076,13275,4061,13302,4053,13336,4053,13372,4053,13400,4061,13420,4077,13441,4094,13452,4116,13452,4143L13452,4144,13404,4144C13402,4128,13396,4116,13384,4108,13373,4099,13357,4095,13337,4095,13317,4095,13301,4098,13291,4105,13281,4112,13276,4123,13276,4136,13276,4146,13279,4153,13285,4159,13292,4164,13304,4169,13322,4173L13370,4184C13404,4192,13427,4202,13440,4215,13453,4228,13460,4246,13460,4269,13460,4300,13449,4323,13427,4340,13405,4357,13375,4366,13336,4366,13298,4366,13269,4357,13249,4339,13229,4321,13218,4295,13218,4261Z"/>
		<path d="M13498,4261L13546,4261C13547,4281,13555,4296,13567,4307,13580,4317,13598,4322,13621,4322,13642,4322,13659,4318,13671,4309,13683,4301,13690,4290,13690,4275,13690,4264,13686,4256,13680,4250,13674,4244,13662,4239,13645,4235L13589,4221C13558,4213,13536,4203,13524,4191,13512,4179,13506,4161,13506,4138,13506,4112,13515,4091,13535,4076,13555,4061,13582,4053,13616,4053,13652,4053,13680,4061,13700,4077,13721,4094,13732,4116,13732,4143L13732,4144,13684,4144C13682,4128,13676,4116,13664,4108,13653,4099,13637,4095,13617,4095,13597,4095,13581,4098,13571,4105,13561,4112,13556,4123,13556,4136,13556,4146,13559,4153,13565,4159,13572,4164,13584,4169,13602,4173L13650,4184C13684,4192,13707,4202,13720,4215,13733,4228,13740,4246,13740,4269,13740,4300,13729,4323,13707,4340,13685,4357,13655,4366,13616,4366,13578,4366,13549,4357,13529,4339,13509,4321,13498,4295,13498,4261Z"/>
		<path d="M13834,4209C13834,4245,13841,4273,13857,4293,13873,4312,13895,4322,13925,4322,13954,4322,13976,4312,13991,4293,14007,4273,14015,4245,14015,4209,14015,4172,14007,4145,13991,4125,13976,4106,13954,4096,13925,4096,13895,4096,13873,4106,13857,4125,13841,4144,13834,4172,13834,4209ZM13783,4209C13783,4159,13795,4121,13820,4093,13844,4066,13879,4052,13924,4052,13969,4052,14003,4066,14028,4093,14053,4121,14066,4159,14066,4209,14066,4258,14053,4297,14028,4325,14004,4352,13969,4366,13924,4366,13879,4366,13845,4352,13820,4325,13795,4297,13783,4259,13783,4209Z"/>
		<path d="M14124,4357L14124,4062,14172,4062,14172,4116C14180,4096,14190,4081,14204,4071,14217,4061,14234,4056,14254,4056,14257,4056,14260,4056,14262,4056,14263,4056,14265,4056,14267,4057L14267,4110C14265,4109,14264,4109,14262,4109,14260,4109,14258,4109,14255,4109,14228,4109,14208,4116,14194,4131,14180,4145,14174,4166,14174,4193L14174,4357,14124,4357Z"/>
		<path d="M8288,6987L8341,6987C8341,7017,8351,7040,8370,7058,8389,7075,8414,7084,8446,7084,8477,7084,8502,7077,8520,7064,8538,7051,8548,7033,8548,7010,8548,6979,8514,6955,8446,6939,8442,6938,8439,6937,8436,6937,8381,6924,8345,6909,8327,6893,8309,6877,8301,6854,8301,6825,8301,6789,8314,6760,8340,6738,8367,6716,8402,6705,8446,6705,8490,6705,8526,6716,8551,6739,8577,6762,8590,6794,8591,6834L8538,6834C8536,6807,8526,6786,8510,6772,8493,6757,8471,6750,8442,6750,8415,6750,8394,6756,8378,6768,8362,6780,8354,6795,8354,6815,8354,6846,8387,6870,8453,6885,8463,6888,8471,6889,8476,6891,8477,6891,8479,6891,8482,6892,8526,6903,8555,6914,8569,6926,8580,6935,8588,6946,8594,6960,8600,6973,8603,6987,8603,7004,8603,7043,8588,7074,8560,7097,8532,7120,8495,7132,8447,7132,8398,7132,8359,7120,8332,7095,8304,7070,8290,7034,8288,6987Z"/>
		<path d="M8904,7071L8860,7034,8886,6999,8941,7044C8953,7030,8963,7012,8970,6991,8976,6969,8980,6945,8980,6918,8980,6866,8968,6826,8944,6797,8920,6768,8887,6753,8845,6753,8803,6753,8769,6768,8745,6797,8721,6826,8710,6866,8710,6918,8710,6970,8721,7011,8745,7040,8769,7069,8803,7084,8845,7084,8856,7084,8867,7083,8876,7081,8886,7079,8895,7075,8904,7071ZM8948,7106C8933,7115,8916,7121,8899,7126,8882,7130,8864,7132,8845,7132,8785,7132,8738,7113,8704,7075,8670,7038,8653,6985,8653,6918,8653,6852,8670,6799,8704,6762,8738,6724,8785,6705,8845,6705,8905,6705,8951,6724,8985,6762,9019,6800,9037,6852,9037,6918,9037,6951,9032,6981,9024,7007,9015,7033,9002,7057,8984,7078L9033,7119,9005,7153,8948,7106Z"/>
		<path d="M9107,7121C9107,6986,9107,6850,9107,6715,9125,6715,9144,6715,9163,6715,9163,6833,9163,6952,9163,7070,9230,7070,9297,7070,9365,7070,9365,7087,9365,7104,9365,7121,9279,7121,9193,7121,9107,7121Z"/>
		<path d="M9402,6772C9402,6753,9402,6735,9402,6716,9418,6716,9435,6716,9452,6716,9452,6735,9452,6753,9452,6772,9435,6772,9418,6772,9402,6772ZM9402,7121C9402,7023,9402,6924,9402,6826,9418,6826,9435,6826,9452,6826,9452,6924,9452,7023,9452,7121,9435,7121,9418,7121,9402,7121Z"/>
		<path d="M9587,7047C9587,7060,9588,7069,9592,7073,9596,7078,9603,7080,9613,7080,9616,7080,9619,7080,9623,7080,9628,7080,9633,7079,9640,7079L9640,7121C9631,7122,9624,7123,9617,7124,9611,7125,9605,7125,9600,7125,9576,7125,9560,7121,9551,7112,9541,7103,9537,7087,9537,7064L9537,6865,9493,6865,9493,6826,9537,6826,9537,6744,9587,6744,9587,6826,9640,6826,9640,6865,9587,6865,9587,7047Z"/>
		<path d="M9723,6947L9884,6947C9884,6919,9877,6898,9864,6883,9850,6868,9830,6860,9805,6860,9780,6860,9761,6867,9747,6882,9733,6897,9725,6919,9723,6947ZM9883,7026L9932,7026C9927,7059,9913,7084,9890,7103,9867,7122,9838,7131,9803,7131,9762,7131,9730,7117,9706,7090,9682,7062,9670,7024,9670,6977,9670,6926,9682,6887,9706,6859,9729,6830,9762,6816,9803,6816,9846,6816,9878,6829,9902,6855,9925,6881,9936,6918,9936,6966,9936,6972,9936,6977,9936,6979,9936,6982,9936,6985,9936,6988L9723,6988C9723,7019,9731,7043,9746,7060,9761,7077,9782,7086,9808,7086,9828,7086,9845,7081,9858,7070,9871,7060,9880,7045,9883,7026Z"/>
		<path d="M10359,6971C10359,6935,10351,6907,10336,6889,10321,6870,10299,6861,10270,6861,10242,6861,10221,6871,10205,6891,10190,6912,10182,6940,10182,6978,10182,7011,10190,7038,10206,7057,10222,7076,10243,7086,10271,7086,10299,7086,10320,7076,10336,7056,10351,7036,10359,7008,10359,6971ZM10405,6715L10405,7121,10357,7121,10357,7084C10344,7099,10330,7111,10314,7118,10298,7126,10280,7130,10261,7130,10222,7130,10190,7116,10167,7088,10143,7059,10132,7022,10132,6974,10132,6926,10143,6887,10167,6859,10190,6830,10222,6816,10261,6816,10281,6816,10300,6820,10316,6828,10332,6835,10345,6847,10357,6862L10357,6715,10405,6715Z"/>
		<path d="M10662,7082C10647,7098,10630,7110,10613,7118,10596,7126,10578,7130,10558,7130,10528,7130,10505,7122,10488,7106,10471,7091,10463,7069,10463,7041,10463,7015,10471,6994,10488,6978,10504,6963,10530,6953,10564,6949,10572,6948,10584,6947,10598,6945,10623,6943,10638,6940,10644,6938,10650,6935,10654,6933,10655,6929,10657,6925,10658,6917,10658,6905,10658,6890,10653,6879,10642,6871,10631,6864,10614,6860,10592,6860,10570,6860,10552,6865,10541,6874,10529,6883,10524,6897,10524,6915L10477,6915,10477,6913C10477,6883,10487,6859,10508,6842,10529,6825,10557,6816,10594,6816,10633,6816,10662,6823,10681,6838,10699,6853,10709,6876,10709,6908L10709,7056C10709,7069,10710,7077,10713,7080,10715,7084,10720,7086,10728,7086,10729,7086,10731,7086,10733,7086,10735,7085,10738,7085,10741,7084L10741,7122C10734,7124,10729,7125,10725,7126,10720,7127,10716,7127,10712,7127,10695,7127,10683,7123,10675,7116,10666,7109,10662,7098,10662,7084L10662,7082ZM10658,6971C10644,6978,10622,6983,10590,6987,10578,6989,10570,6990,10564,6991,10546,6994,10533,6999,10525,7007,10517,7015,10514,7026,10514,7040,10514,7055,10518,7066,10527,7074,10536,7082,10550,7086,10567,7086,10593,7086,10615,7079,10632,7066,10649,7053,10658,7036,10658,7015L10658,6971Z"/>
		<path d="M10844,7047C10844,7060,10845,7069,10849,7073,10853,7078,10860,7080,10870,7080,10873,7080,10876,7080,10880,7080,10885,7080,10890,7079,10897,7079L10897,7121C10888,7122,10881,7123,10874,7124,10868,7125,10862,7125,10857,7125,10833,7125,10817,7121,10808,7112,10798,7103,10794,7087,10794,7064L10794,6865,10750,6865,10750,6826,10794,6826,10794,6744,10844,6744,10844,6826,10897,6826,10897,6865,10844,6865,10844,7047Z"/>
		<path d="M11124,7082C11109,7098,11092,7110,11075,7118,11058,7126,11040,7130,11020,7130,10990,7130,10967,7122,10950,7106,10933,7091,10925,7069,10925,7041,10925,7015,10933,6994,10950,6978,10966,6963,10992,6953,11026,6949,11034,6948,11046,6947,11060,6945,11085,6943,11100,6940,11106,6938,11112,6935,11116,6933,11117,6929,11119,6925,11120,6917,11120,6905,11120,6890,11115,6879,11104,6871,11093,6864,11076,6860,11054,6860,11032,6860,11014,6865,11003,6874,10991,6883,10986,6897,10986,6915L10939,6915,10939,6913C10939,6883,10949,6859,10970,6842,10991,6825,11019,6816,11056,6816,11095,6816,11124,6823,11143,6838,11161,6853,11171,6876,11171,6908L11171,7056C11171,7069,11172,7077,11175,7080,11177,7084,11182,7086,11190,7086,11191,7086,11193,7086,11195,7086,11197,7085,11200,7085,11203,7084L11203,7122C11196,7124,11191,7125,11187,7126,11182,7127,11178,7127,11174,7127,11157,7127,11145,7123,11137,7116,11128,7109,11124,7098,11124,7084L11124,7082ZM11120,6971C11106,6978,11084,6983,11052,6987,11040,6989,11032,6990,11026,6991,11008,6994,10995,6999,10987,7007,10979,7015,10976,7026,10976,7040,10976,7055,10980,7066,10989,7074,10998,7082,11012,7086,11029,7086,11055,7086,11077,7079,11094,7066,11111,7053,11120,7036,11120,7015L11120,6971Z"/>
		<path d="M11295,6971C11295,7008,11302,7036,11317,7056,11332,7076,11354,7086,11382,7086,11409,7086,11430,7076,11446,7057,11462,7038,11470,7011,11470,6978,11470,6940,11462,6912,11447,6891,11432,6871,11410,6861,11382,6861,11353,6861,11331,6870,11316,6889,11302,6907,11295,6935,11295,6971ZM11248,7121L11248,6715,11296,6715,11296,6867C11308,6850,11321,6838,11337,6829,11353,6820,11372,6816,11392,6816,11431,6816,11462,6830,11486,6859,11510,6888,11522,6926,11522,6974,11522,7022,11510,7059,11486,7088,11463,7116,11432,7130,11392,7130,11372,7130,11353,7126,11338,7119,11322,7111,11308,7100,11296,7084L11296,7121,11248,7121Z"/>
		<path d="M11763,7082C11748,7098,11731,7110,11714,7118,11697,7126,11679,7130,11659,7130,11629,7130,11606,7122,11589,7106,11572,7091,11564,7069,11564,7041,11564,7015,11572,6994,11589,6978,11605,6963,11631,6953,11665,6949,11673,6948,11685,6947,11699,6945,11724,6943,11739,6940,11745,6938,11751,6935,11755,6933,11756,6929,11758,6925,11759,6917,11759,6905,11759,6890,11754,6879,11743,6871,11732,6864,11715,6860,11693,6860,11671,6860,11653,6865,11642,6874,11630,6883,11625,6897,11625,6915L11578,6915,11578,6913C11578,6883,11588,6859,11609,6842,11630,6825,11658,6816,11695,6816,11734,6816,11763,6823,11782,6838,11800,6853,11810,6876,11810,6908L11810,7056C11810,7069,11811,7077,11814,7080,11816,7084,11821,7086,11829,7086,11830,7086,11832,7086,11834,7086,11836,7085,11839,7085,11842,7084L11842,7122C11835,7124,11830,7125,11826,7126,11821,7127,11817,7127,11813,7127,11796,7127,11784,7123,11776,7116,11767,7109,11763,7098,11763,7084L11763,7082ZM11759,6971C11745,6978,11723,6983,11691,6987,11679,6989,11671,6990,11665,6991,11647,6994,11634,6999,11626,7007,11618,7015,11615,7026,11615,7040,11615,7055,11619,7066,11628,7074,11637,7082,11651,7086,11668,7086,11694,7086,11716,7079,11733,7066,11750,7053,11759,7036,11759,7015L11759,6971Z"/>
		<path d="M11866,7025L11914,7025C11915,7045,11923,7060,11935,7071,11948,7081,11966,7086,11989,7086,12010,7086,12027,7082,12039,7073,12051,7065,12058,7054,12058,7039,12058,7028,12054,7020,12048,7014,12042,7008,12030,7003,12013,6999L11957,6985C11926,6977,11904,6967,11892,6955,11880,6943,11874,6925,11874,6902,11874,6876,11883,6855,11903,6840,11923,6825,11950,6817,11984,6817,12020,6817,12048,6825,12068,6841,12089,6858,12100,6880,12100,6907L12100,6908,12052,6908C12050,6892,12044,6880,12032,6872,12021,6863,12005,6859,11985,6859,11965,6859,11949,6862,11939,6869,11929,6876,11924,6887,11924,6900,11924,6910,11927,6917,11933,6923,11940,6928,11952,6933,11970,6937L12018,6948C12052,6956,12075,6966,12088,6979,12101,6992,12108,7010,12108,7033,12108,7064,12097,7087,12075,7104,12053,7121,12023,7130,11984,7130,11946,7130,11917,7121,11897,7103,11877,7085,11866,7059,11866,7025Z"/>
		<path d="M12204,6947L12366,6947C12365,6919,12358,6898,12345,6883,12331,6868,12311,6860,12286,6860,12261,6860,12242,6867,12228,6882,12214,6897,12206,6919,12204,6947ZM12365,7026L12414,7026C12408,7059,12394,7084,12371,7103,12348,7122,12319,7131,12284,7131,12243,7131,12211,7117,12187,7090,12163,7062,12152,7024,12152,6977,12152,6926,12163,6887,12187,6859,12210,6830,12243,6816,12284,6816,12327,6816,12359,6829,12383,6855,12406,6881,12418,6918,12418,6966,12418,6972,12417,6977,12417,6979,12417,6982,12417,6985,12417,6988L12204,6988C12204,7019,12212,7043,12227,7060,12242,7077,12263,7086,12289,7086,12309,7086,12326,7081,12339,7070,12352,7060,12361,7045,12365,7026Z"/>
		<path d="M1835,1785C1835,1650,1835,1514,1835,1379,1854,1379,1872,1379,1890,1379,1890,1514,1890,1650,1890,1785,1872,1785,1854,1785,1835,1785Z"/>
		<path d="M2033,1427L2033,1564,2126,1564C2160,1564,2184,1559,2198,1548,2212,1537,2220,1518,2220,1493,2220,1469,2213,1452,2200,1442,2186,1432,2162,1427,2126,1427L2033,1427ZM1978,1379L2135,1379C2161,1379,2180,1380,2192,1382,2204,1385,2215,1388,2224,1393,2241,1403,2254,1416,2263,1432,2272,1449,2277,1469,2277,1491,2277,1513,2272,1532,2262,1547,2253,1563,2239,1575,2221,1584,2236,1588,2247,1596,2254,1606,2261,1617,2265,1635,2267,1660L2271,1727C2272,1741,2274,1752,2277,1759,2280,1766,2285,1771,2290,1774L2290,1785,2226,1785C2221,1777,2217,1758,2215,1731,2215,1730,2215,1729,2215,1729L2212,1676C2210,1649,2204,1631,2194,1623,2185,1615,2161,1611,2122,1611L2034,1611,2034,1785,1978,1785,1978,1379Z"/>
		<path d="M2635,1634L2688,1634C2685,1683,2668,1723,2637,1752,2606,1781,2565,1796,2516,1796,2458,1796,2414,1777,2381,1738,2349,1699,2333,1645,2333,1576,2333,1513,2349,1462,2383,1425,2417,1388,2463,1369,2521,1369,2567,1369,2604,1381,2634,1404,2663,1428,2680,1460,2685,1501L2631,1501C2625,1474,2613,1454,2594,1440,2574,1425,2549,1418,2518,1418,2477,1418,2445,1432,2423,1461,2400,1490,2389,1531,2389,1583,2389,1633,2400,1672,2424,1702,2448,1732,2479,1747,2518,1747,2552,1747,2579,1737,2600,1716,2622,1695,2633,1668,2635,1634Z"/>
		<path d="M1497,2261L1545,2261C1546,2281,1554,2296,1566,2307,1579,2317,1597,2322,1620,2322,1641,2322,1658,2318,1670,2309,1682,2301,1689,2290,1689,2275,1689,2264,1685,2256,1679,2250,1673,2244,1661,2239,1644,2235L1588,2221C1557,2213,1535,2203,1523,2191,1511,2179,1505,2161,1505,2138,1505,2112,1514,2091,1534,2076,1554,2061,1581,2053,1615,2053,1651,2053,1679,2061,1699,2077,1720,2094,1731,2116,1731,2143L1731,2144,1683,2144C1681,2128,1675,2116,1663,2108,1652,2099,1636,2095,1616,2095,1596,2095,1580,2098,1570,2105,1560,2112,1555,2123,1555,2136,1555,2146,1558,2153,1564,2159,1571,2164,1583,2169,1601,2173L1649,2184C1683,2192,1706,2202,1719,2215,1732,2228,1739,2246,1739,2269,1739,2300,1728,2323,1706,2340,1684,2357,1654,2366,1615,2366,1577,2366,1548,2357,1528,2339,1508,2321,1497,2295,1497,2261Z"/>
		<path d="M1835,2183L1997,2183C1996,2155,1989,2134,1976,2119,1962,2104,1942,2096,1917,2096,1892,2096,1873,2103,1859,2118,1845,2133,1837,2155,1835,2183ZM1996,2262L2044,2262C2039,2295,2025,2320,2002,2339,1979,2358,1950,2367,1915,2367,1874,2367,1842,2353,1818,2326,1794,2298,1783,2260,1783,2213,1783,2162,1794,2123,1818,2095,1841,2066,1874,2052,1915,2052,1958,2052,1990,2065,2014,2091,2037,2117,2049,2154,2049,2202,2049,2208,2048,2213,2048,2215,2048,2218,2048,2221,2048,2224L1835,2224C1835,2255,1843,2279,1858,2296,1873,2313,1894,2322,1920,2322,1940,2322,1957,2317,1970,2306,1983,2296,1992,2281,1996,2262Z"/>
		<path d="M2106,2357L2106,2062,2154,2062,2154,2116C2162,2096,2172,2081,2186,2071,2199,2061,2216,2056,2236,2056,2239,2056,2242,2056,2244,2056,2245,2056,2247,2056,2249,2057L2249,2110C2247,2109,2246,2109,2244,2109,2242,2109,2240,2109,2237,2109,2210,2109,2190,2116,2176,2131,2162,2145,2156,2166,2156,2193L2156,2357,2106,2357Z"/>
		<path d="M2364,2357C2328,2259,2292,2160,2256,2062,2273,2062,2291,2062,2308,2062,2336,2141,2363,2220,2390,2298,2417,2220,2444,2141,2471,2062,2488,2062,2506,2062,2524,2062,2488,2160,2452,2259,2417,2357,2399,2357,2381,2357,2364,2357Z"/>
		<path d="M2602,2183L2763,2183C2763,2155,2756,2134,2743,2119,2729,2104,2709,2096,2684,2096,2659,2096,2640,2103,2626,2118,2612,2133,2604,2155,2602,2183ZM2762,2262L2811,2262C2806,2295,2792,2320,2769,2339,2746,2358,2717,2367,2682,2367,2641,2367,2609,2353,2585,2326,2561,2298,2550,2260,2550,2213,2550,2162,2561,2123,2585,2095,2608,2066,2641,2052,2682,2052,2725,2052,2757,2065,2781,2091,2804,2117,2816,2154,2816,2202,2816,2208,2815,2213,2815,2215,2815,2218,2815,2221,2815,2224L2602,2224C2602,2255,2610,2279,2625,2296,2640,2313,2660,2322,2687,2322,2707,2322,2724,2317,2737,2306,2750,2296,2759,2281,2762,2262Z"/>
		<path d="M2873,2357L2873,2062,2921,2062,2921,2116C2929,2096,2939,2081,2953,2071,2966,2061,2983,2056,3003,2056,3006,2056,3009,2056,3011,2056,3012,2056,3014,2056,3016,2057L3016,2110C3014,2109,3013,2109,3011,2109,3009,2109,3007,2109,3004,2109,2977,2109,2957,2116,2943,2131,2929,2145,2923,2166,2923,2193L2923,2357,2873,2357Z"/>
		<path d="M18445,1526L18351,1526,18351,1835,18445,1835C18486,1835,18517,1822,18537,1796,18558,1769,18569,1730,18569,1679,18569,1629,18558,1592,18537,1565,18516,1539,18485,1526,18445,1526ZM18296,1885L18296,1479,18450,1479C18506,1479,18550,1496,18580,1530,18610,1564,18625,1612,18625,1676,18625,1742,18609,1793,18578,1830,18547,1867,18503,1885,18448,1885L18296,1885Z"/>
		<path d="M18726,1711L18887,1711C18887,1683,18880,1662,18867,1647,18853,1632,18833,1624,18808,1624,18783,1624,18764,1631,18750,1646,18736,1661,18728,1683,18726,1711ZM18887,1790L18935,1790C18930,1823,18916,1848,18893,1867,18870,1886,18841,1895,18806,1895,18765,1895,18733,1881,18709,1854,18685,1826,18674,1788,18674,1741,18674,1690,18685,1651,18709,1623,18732,1594,18765,1580,18806,1580,18849,1580,18881,1593,18905,1619,18928,1645,18940,1682,18940,1730,18940,1736,18939,1741,18939,1743,18939,1746,18939,1749,18939,1752L18726,1752C18726,1783,18734,1807,18749,1824,18764,1841,18785,1850,18811,1850,18831,1850,18848,1845,18861,1834,18874,1824,18883,1809,18887,1790Z"/>
		<path d="M18976,1789L19024,1789C19025,1809,19033,1824,19045,1835,19058,1845,19076,1850,19099,1850,19120,1850,19137,1846,19149,1837,19161,1829,19168,1818,19168,1803,19168,1792,19164,1784,19158,1778,19152,1772,19140,1767,19123,1763L19067,1749C19036,1741,19014,1731,19002,1719,18990,1707,18984,1689,18984,1666,18984,1640,18993,1619,19013,1604,19033,1589,19060,1581,19094,1581,19130,1581,19158,1589,19178,1605,19199,1622,19210,1644,19210,1671L19210,1672,19162,1672C19160,1656,19154,1644,19142,1636,19131,1627,19115,1623,19095,1623,19075,1623,19059,1626,19049,1633,19039,1640,19034,1651,19034,1664,19034,1674,19037,1681,19043,1687,19050,1692,19062,1697,19080,1701L19128,1712C19162,1720,19185,1730,19198,1743,19211,1756,19218,1774,19218,1797,19218,1828,19207,1851,19185,1868,19163,1885,19133,1894,19094,1894,19056,1894,19027,1885,19007,1867,18987,1849,18976,1823,18976,1789Z"/>
		<path d="M19276,1885C19276,1750,19276,1614,19276,1479,19292,1479,19309,1479,19326,1479,19326,1560,19326,1641,19326,1722,19370,1678,19414,1634,19459,1590,19480,1590,19500,1590,19521,1590,19484,1626,19448,1662,19411,1698,19447,1760,19483,1823,19520,1885,19501,1885,19482,1885,19464,1885,19435,1834,19406,1783,19378,1732,19360,1749,19343,1766,19326,1782,19326,1817,19326,1851,19326,1885,19309,1885,19292,1885,19276,1885Z"/>
		<path d="M19626,1811C19626,1824,19627,1833,19631,1837,19635,1842,19642,1844,19652,1844,19655,1844,19658,1844,19662,1844,19667,1844,19672,1843,19679,1843L19679,1885C19670,1886,19663,1887,19656,1888,19650,1889,19644,1889,19639,1889,19615,1889,19599,1885,19590,1876,19580,1867,19576,1851,19576,1828L19576,1629,19532,1629,19532,1590,19576,1590,19576,1508,19626,1508,19626,1590,19679,1590,19679,1629,19626,1629,19626,1811Z"/>
		<path d="M19761,1737C19761,1773,19768,1801,19784,1821,19800,1840,19822,1850,19852,1850,19881,1850,19903,1840,19918,1821,19934,1801,19942,1773,19942,1737,19942,1700,19934,1673,19918,1653,19903,1634,19881,1624,19852,1624,19822,1624,19800,1634,19784,1653,19768,1672,19761,1700,19761,1737ZM19710,1737C19710,1687,19722,1649,19747,1621,19771,1594,19806,1580,19851,1580,19896,1580,19930,1594,19955,1621,19980,1649,19993,1687,19993,1737,19993,1786,19980,1825,19955,1853,19931,1880,19896,1894,19851,1894,19806,1894,19772,1880,19747,1853,19722,1825,19710,1787,19710,1737Z"/>
		<path d="M20099,1740C20099,1776,20106,1804,20120,1822,20135,1841,20157,1850,20186,1850,20214,1850,20236,1840,20251,1820,20266,1799,20274,1771,20274,1733,20274,1700,20266,1673,20250,1654,20234,1635,20213,1625,20186,1625,20158,1625,20136,1635,20121,1655,20106,1675,20099,1703,20099,1740ZM20052,2003L20052,1590,20100,1590,20100,1632C20112,1614,20126,1601,20142,1592,20157,1584,20175,1580,20196,1580,20236,1580,20267,1594,20290,1622,20314,1651,20326,1689,20326,1736,20326,1784,20314,1823,20290,1851,20266,1880,20235,1894,20196,1894,20175,1894,20157,1890,20141,1883,20125,1875,20112,1864,20100,1849L20100,2003,20052,2003Z"/>
		<path d="M17773,2457C17743,2359,17714,2260,17685,2162,17702,2162,17719,2162,17736,2162,17757,2237,17778,2312,17798,2388,17818,2312,17837,2237,17857,2162,17876,2162,17895,2162,17915,2162,17934,2237,17953,2312,17972,2388,17993,2312,18015,2237,18036,2162,18053,2162,18070,2162,18088,2162,18058,2260,18028,2359,17998,2457,17981,2457,17964,2457,17948,2457,17927,2381,17906,2306,17885,2230,17864,2306,17843,2381,17823,2457,17806,2457,17789,2457,17773,2457Z"/>
		<path d="M18168,2283L18329,2283C18329,2255,18322,2234,18309,2219,18295,2204,18275,2196,18250,2196,18225,2196,18206,2203,18192,2218,18178,2233,18170,2255,18168,2283ZM18329,2362L18377,2362C18372,2395,18358,2420,18335,2439,18312,2458,18283,2467,18248,2467,18207,2467,18175,2453,18151,2426,18127,2398,18116,2360,18116,2313,18116,2262,18127,2223,18151,2195,18174,2166,18207,2152,18248,2152,18291,2152,18323,2165,18347,2191,18370,2217,18382,2254,18382,2302,18382,2308,18381,2313,18381,2315,18381,2318,18381,2321,18381,2324L18168,2324C18168,2355,18176,2379,18191,2396,18206,2413,18227,2422,18253,2422,18273,2422,18290,2417,18303,2406,18316,2396,18325,2381,18329,2362Z"/>
		<path d="M18487,2307C18487,2344,18494,2372,18509,2392,18524,2412,18546,2422,18574,2422,18601,2422,18622,2412,18638,2393,18654,2374,18662,2347,18662,2314,18662,2276,18654,2248,18639,2227,18624,2207,18602,2197,18574,2197,18545,2197,18523,2206,18508,2225,18494,2243,18487,2271,18487,2307ZM18440,2457L18440,2051,18488,2051,18488,2203C18500,2186,18513,2174,18529,2165,18545,2156,18564,2152,18584,2152,18623,2152,18654,2166,18678,2195,18702,2224,18714,2262,18714,2310,18714,2358,18702,2395,18678,2424,18655,2452,18624,2466,18584,2466,18564,2466,18545,2462,18530,2455,18514,2447,18500,2436,18488,2420L18488,2457,18440,2457Z"/>
		<path d="M18974,2307C18974,2344,18981,2372,18996,2392,19011,2412,19033,2422,19061,2422,19088,2422,19109,2412,19125,2393,19141,2374,19149,2347,19149,2314,19149,2276,19141,2248,19126,2227,19111,2207,19089,2197,19061,2197,19032,2197,19010,2206,18995,2225,18981,2243,18974,2271,18974,2307ZM18926,2457L18926,2051,18975,2051,18975,2203C18987,2186,19000,2174,19016,2165,19032,2156,19051,2152,19071,2152,19110,2152,19141,2166,19165,2195,19189,2224,19200,2262,19200,2310,19200,2358,19189,2395,19165,2424,19142,2452,19111,2466,19071,2466,19051,2466,19032,2462,19017,2455,19001,2447,18987,2436,18975,2420L18975,2457,18926,2457Z"/>
		<path d="M19260,2457L19260,2162,19308,2162,19308,2216C19316,2196,19326,2181,19340,2171,19353,2161,19370,2156,19390,2156,19393,2156,19396,2156,19398,2156,19399,2156,19401,2156,19403,2157L19403,2210C19401,2209,19400,2209,19398,2209,19396,2209,19394,2209,19391,2209,19364,2209,19344,2216,19330,2231,19316,2245,19310,2266,19310,2293L19310,2457,19260,2457Z"/>
		<path d="M19482,2309C19482,2345,19489,2373,19505,2393,19521,2412,19543,2422,19573,2422,19602,2422,19624,2412,19639,2393,19655,2373,19663,2345,19663,2309,19663,2272,19655,2245,19639,2225,19624,2206,19602,2196,19573,2196,19543,2196,19521,2206,19505,2225,19489,2244,19482,2272,19482,2309ZM19431,2309C19431,2259,19443,2221,19468,2193,19492,2166,19527,2152,19572,2152,19617,2152,19651,2166,19676,2193,19701,2221,19714,2259,19714,2309,19714,2358,19701,2397,19676,2425,19652,2452,19617,2466,19572,2466,19527,2466,19493,2452,19468,2425,19443,2397,19431,2359,19431,2309Z"/>
		<path d="M19826,2457C19796,2359,19767,2260,19738,2162,19755,2162,19772,2162,19789,2162,19810,2237,19831,2312,19851,2388,19871,2312,19890,2237,19910,2162,19929,2162,19948,2162,19968,2162,19987,2237,20006,2312,20025,2388,20046,2312,20068,2237,20089,2162,20106,2162,20123,2162,20141,2162,20111,2260,20081,2359,20051,2457,20034,2457,20017,2457,20001,2457,19980,2381,19959,2306,19938,2230,19917,2306,19896,2381,19876,2457,19859,2457,19842,2457,19826,2457Z"/>
		<path d="M20162,2361L20210,2361C20211,2381,20219,2396,20231,2407,20244,2417,20262,2422,20285,2422,20306,2422,20323,2418,20335,2409,20347,2401,20354,2390,20354,2375,20354,2364,20350,2356,20344,2350,20338,2344,20326,2339,20309,2335L20253,2321C20222,2313,20200,2303,20188,2291,20176,2279,20169,2261,20169,2238,20169,2212,20179,2191,20199,2176,20219,2161,20246,2153,20280,2153,20316,2153,20344,2161,20364,2177,20385,2194,20396,2216,20396,2243L20396,2244,20348,2244C20346,2228,20340,2216,20328,2208,20317,2199,20301,2195,20281,2195,20261,2195,20245,2198,20235,2205,20225,2212,20220,2223,20220,2236,20220,2246,20223,2253,20229,2259,20236,2264,20248,2269,20266,2273L20314,2284C20348,2292,20371,2302,20384,2315,20397,2328,20404,2346,20404,2369,20404,2400,20393,2423,20371,2440,20349,2457,20319,2466,20280,2466,20242,2466,20213,2457,20193,2439,20173,2421,20162,2395,20162,2361Z"/>
		<path d="M20500,2283L20662,2283C20661,2255,20654,2234,20641,2219,20627,2204,20607,2196,20582,2196,20557,2196,20538,2203,20524,2218,20510,2233,20502,2255,20500,2283ZM20661,2362L20709,2362C20704,2395,20690,2420,20667,2439,20644,2458,20615,2467,20580,2467,20539,2467,20507,2453,20483,2426,20459,2398,20448,2360,20448,2313,20448,2262,20459,2223,20483,2195,20506,2166,20539,2152,20580,2152,20623,2152,20655,2165,20679,2191,20702,2217,20714,2254,20714,2302,20714,2308,20713,2313,20713,2315,20713,2318,20713,2321,20713,2324L20500,2324C20500,2355,20508,2379,20523,2396,20538,2413,20559,2422,20585,2422,20605,2422,20622,2417,20635,2406,20648,2396,20657,2381,20661,2362Z"/>
		<path d="M20771,2457L20771,2162,20819,2162,20819,2216C20827,2196,20837,2181,20851,2171,20864,2161,20881,2156,20901,2156,20904,2156,20907,2156,20909,2156,20910,2156,20912,2156,20914,2157L20914,2210C20912,2209,20911,2209,20909,2209,20907,2209,20905,2209,20902,2209,20875,2209,20855,2216,20841,2231,20827,2245,20821,2266,20821,2293L20821,2457,20771,2457Z"/>
		<path d="M18551,5339L18551,5685,18500,5685,18500,5279,18579,5279,18679,5590C18682,5598,18684,5605,18686,5610,18687,5615,18688,5619,18689,5623,18690,5616,18692,5610,18693,5605,18695,5599,18696,5594,18698,5590L18802,5279,18881,5279,18881,5685,18828,5685,18828,5339C18826,5345,18825,5351,18823,5357,18821,5363,18820,5369,18818,5375L18714,5685,18662,5685,18560,5375C18558,5369,18556,5364,18555,5358,18553,5352,18552,5346,18551,5339Z"/>
		<path d="M18996,5537C18996,5573,19003,5601,19019,5621,19035,5640,19057,5650,19087,5650,19116,5650,19138,5640,19153,5621,19169,5601,19177,5573,19177,5537,19177,5500,19169,5473,19153,5453,19138,5434,19116,5424,19087,5424,19057,5424,19035,5434,19019,5453,19003,5472,18996,5500,18996,5537ZM18945,5537C18945,5487,18957,5449,18982,5421,19006,5394,19041,5380,19086,5380,19131,5380,19165,5394,19190,5421,19215,5449,19228,5487,19228,5537,19228,5586,19215,5625,19190,5653,19166,5680,19131,5694,19086,5694,19041,5694,19007,5680,18982,5653,18957,5625,18945,5587,18945,5537Z"/>
		<path d="M19334,5535C19334,5572,19341,5600,19356,5620,19371,5640,19393,5650,19421,5650,19448,5650,19469,5640,19485,5621,19501,5602,19509,5575,19509,5542,19509,5504,19501,5476,19486,5455,19471,5435,19449,5425,19421,5425,19392,5425,19370,5434,19355,5453,19341,5471,19334,5499,19334,5535ZM19287,5685L19287,5279,19335,5279,19335,5431C19347,5414,19360,5402,19376,5393,19392,5384,19411,5380,19431,5380,19470,5380,19501,5394,19525,5423,19549,5452,19561,5490,19561,5538,19561,5586,19549,5623,19525,5652,19502,5680,19471,5694,19431,5694,19411,5694,19392,5690,19377,5683,19361,5675,19347,5664,19335,5648L19335,5685,19287,5685Z"/>
		<path d="M19620,5336C19620,5317,19620,5299,19620,5280,19636,5280,19653,5280,19670,5280,19670,5299,19670,5317,19670,5336,19653,5336,19636,5336,19620,5336ZM19620,5685C19620,5587,19620,5488,19620,5390,19636,5390,19653,5390,19670,5390,19670,5488,19670,5587,19670,5685,19653,5685,19636,5685,19620,5685Z"/>
		<path d="M19747,5685C19747,5550,19747,5414,19747,5279,19763,5279,19780,5279,19797,5279,19797,5414,19797,5550,19797,5685,19780,5685,19763,5685,19747,5685Z"/>
		<path d="M19911,5511L20073,5511C20073,5483,20066,5462,20053,5447,20039,5432,20019,5424,19994,5424,19969,5424,19950,5431,19936,5446,19922,5461,19914,5483,19911,5511ZM20072,5590L20121,5590C20116,5623,20102,5648,20079,5667,20056,5686,20027,5695,19992,5695,19951,5695,19919,5681,19895,5654,19871,5626,19859,5588,19859,5541,19859,5490,19871,5451,19895,5423,19918,5394,19951,5380,19992,5380,20035,5380,20067,5393,20091,5419,20114,5445,20125,5482,20125,5530,20125,5536,20125,5541,20125,5543,20125,5546,20125,5549,20125,5552L19912,5552C19912,5583,19920,5607,19935,5624,19950,5641,19971,5650,19997,5650,20017,5650,20034,5645,20047,5634,20060,5624,20069,5609,20072,5590Z"/>
		<path d="M17773,6257C17743,6159,17714,6060,17685,5962,17702,5962,17719,5962,17736,5962,17757,6037,17778,6112,17798,6188,17818,6112,17837,6037,17857,5962,17876,5962,17895,5962,17915,5962,17934,6037,17953,6112,17972,6188,17993,6112,18015,6037,18036,5962,18053,5962,18070,5962,18088,5962,18058,6060,18028,6159,17998,6257,17981,6257,17964,6257,17948,6257,17927,6181,17906,6106,17885,6030,17864,6106,17843,6181,17823,6257,17806,6257,17789,6257,17773,6257Z"/>
		<path d="M18168,6083L18329,6083C18329,6055,18322,6034,18309,6019,18295,6004,18275,5996,18250,5996,18225,5996,18206,6003,18192,6018,18178,6033,18170,6055,18168,6083ZM18329,6162L18377,6162C18372,6195,18358,6220,18335,6239,18312,6258,18283,6267,18248,6267,18207,6267,18175,6253,18151,6226,18127,6198,18116,6160,18116,6113,18116,6062,18127,6023,18151,5995,18174,5966,18207,5952,18248,5952,18291,5952,18323,5965,18347,5991,18370,6017,18382,6054,18382,6102,18382,6108,18381,6113,18381,6115,18381,6118,18381,6121,18381,6124L18168,6124C18168,6155,18176,6179,18191,6196,18206,6213,18227,6222,18253,6222,18273,6222,18290,6217,18303,6206,18316,6196,18325,6181,18329,6162Z"/>
		<path d="M18487,6107C18487,6144,18494,6172,18509,6192,18524,6212,18546,6222,18574,6222,18601,6222,18622,6212,18638,6193,18654,6174,18662,6147,18662,6114,18662,6076,18654,6048,18639,6027,18624,6007,18602,5997,18574,5997,18545,5997,18523,6006,18508,6025,18494,6043,18487,6071,18487,6107ZM18440,6257L18440,5851,18488,5851,18488,6003C18500,5986,18513,5974,18529,5965,18545,5956,18564,5952,18584,5952,18623,5952,18654,5966,18678,5995,18702,6024,18714,6062,18714,6110,18714,6158,18702,6195,18678,6224,18655,6252,18624,6266,18584,6266,18564,6266,18545,6262,18530,6255,18514,6247,18500,6236,18488,6220L18488,6257,18440,6257Z"/>
		<path d="M18974,6107C18974,6144,18981,6172,18996,6192,19011,6212,19033,6222,19061,6222,19088,6222,19109,6212,19125,6193,19141,6174,19149,6147,19149,6114,19149,6076,19141,6048,19126,6027,19111,6007,19089,5997,19061,5997,19032,5997,19010,6006,18995,6025,18981,6043,18974,6071,18974,6107ZM18926,6257L18926,5851,18975,5851,18975,6003C18987,5986,19000,5974,19016,5965,19032,5956,19051,5952,19071,5952,19110,5952,19141,5966,19165,5995,19189,6024,19200,6062,19200,6110,19200,6158,19189,6195,19165,6224,19142,6252,19111,6266,19071,6266,19051,6266,19032,6262,19017,6255,19001,6247,18987,6236,18975,6220L18975,6257,18926,6257Z"/>
		<path d="M19260,6257L19260,5962,19308,5962,19308,6016C19316,5996,19326,5981,19340,5971,19353,5961,19370,5956,19390,5956,19393,5956,19396,5956,19398,5956,19399,5956,19401,5956,19403,5957L19403,6010C19401,6009,19400,6009,19398,6009,19396,6009,19394,6009,19391,6009,19364,6009,19344,6016,19330,6031,19316,6045,19310,6066,19310,6093L19310,6257,19260,6257Z"/>
		<path d="M19482,6109C19482,6145,19489,6173,19505,6193,19521,6212,19543,6222,19573,6222,19602,6222,19624,6212,19639,6193,19655,6173,19663,6145,19663,6109,19663,6072,19655,6045,19639,6025,19624,6006,19602,5996,19573,5996,19543,5996,19521,6006,19505,6025,19489,6044,19482,6072,19482,6109ZM19431,6109C19431,6059,19443,6021,19468,5993,19492,5966,19527,5952,19572,5952,19617,5952,19651,5966,19676,5993,19701,6021,19714,6059,19714,6109,19714,6158,19701,6197,19676,6225,19652,6252,19617,6266,19572,6266,19527,6266,19493,6252,19468,6225,19443,6197,19431,6159,19431,6109Z"/>
		<path d="M19826,6257C19796,6159,19767,6060,19738,5962,19755,5962,19772,5962,19789,5962,19810,6037,19831,6112,19851,6188,19871,6112,19890,6037,19910,5962,19929,5962,19948,5962,19968,5962,19987,6037,20006,6112,20025,6188,20046,6112,20068,6037,20089,5962,20106,5962,20123,5962,20141,5962,20111,6060,20081,6159,20051,6257,20034,6257,20017,6257,20001,6257,19980,6181,19959,6106,19938,6030,19917,6106,19896,6181,19876,6257,19859,6257,19842,6257,19826,6257Z"/>
		<path d="M20162,6161L20210,6161C20211,6181,20219,6196,20231,6207,20244,6217,20262,6222,20285,6222,20306,6222,20323,6218,20335,6209,20347,6201,20354,6190,20354,6175,20354,6164,20350,6156,20344,6150,20338,6144,20326,6139,20309,6135L20253,6121C20222,6113,20200,6103,20188,6091,20176,6079,20169,6061,20169,6038,20169,6012,20179,5991,20199,5976,20219,5961,20246,5953,20280,5953,20316,5953,20344,5961,20364,5977,20385,5994,20396,6016,20396,6043L20396,6044,20348,6044C20346,6028,20340,6016,20328,6008,20317,5999,20301,5995,20281,5995,20261,5995,20245,5998,20235,6005,20225,6012,20220,6023,20220,6036,20220,6046,20223,6053,20229,6059,20236,6064,20248,6069,20266,6073L20314,6084C20348,6092,20371,6102,20384,6115,20397,6128,20404,6146,20404,6169,20404,6200,20393,6223,20371,6240,20349,6257,20319,6266,20280,6266,20242,6266,20213,6257,20193,6239,20173,6221,20162,6195,20162,6161Z"/>
		<path d="M20500,6083L20662,6083C20661,6055,20654,6034,20641,6019,20627,6004,20607,5996,20582,5996,20557,5996,20538,6003,20524,6018,20510,6033,20502,6055,20500,6083ZM20661,6162L20709,6162C20704,6195,20690,6220,20667,6239,20644,6258,20615,6267,20580,6267,20539,6267,20507,6253,20483,6226,20459,6198,20448,6160,20448,6113,20448,6062,20459,6023,20483,5995,20506,5966,20539,5952,20580,5952,20623,5952,20655,5965,20679,5991,20702,6017,20714,6054,20714,6102,20714,6108,20713,6113,20713,6115,20713,6118,20713,6121,20713,6124L20500,6124C20500,6155,20508,6179,20523,6196,20538,6213,20559,6222,20585,6222,20605,6222,20622,6217,20635,6206,20648,6196,20657,6181,20661,6162Z"/>
		<path d="M20771,6257L20771,5962,20819,5962,20819,6016C20827,5996,20837,5981,20851,5971,20864,5961,20881,5956,20901,5956,20904,5956,20907,5956,20909,5956,20910,5956,20912,5956,20914,5957L20914,6010C20912,6009,20911,6009,20909,6009,20907,6009,20905,6009,20902,6009,20875,6009,20855,6016,20841,6031,20827,6045,20821,6066,20821,6093L20821,6257,20771,6257Z"/>
		<path d="M6000,3700L5815,3444,5698,3606,6000,3700Z"/>
		<path d="M3500,1900L3685,2156,3802,1994,3500,1900Z"/>
		<path d="M1835,5785C1835,5650,1835,5514,1835,5379,1854,5379,1872,5379,1890,5379,1890,5514,1890,5650,1890,5785,1872,5785,1854,5785,1835,5785Z"/>
		<path d="M2033,5427L2033,5564,2126,5564C2160,5564,2184,5559,2198,5548,2212,5537,2220,5518,2220,5493,2220,5469,2213,5452,2200,5442,2186,5432,2162,5427,2126,5427L2033,5427ZM1978,5379L2135,5379C2161,5379,2180,5380,2192,5382,2204,5385,2215,5388,2224,5393,2241,5403,2254,5416,2263,5432,2272,5449,2277,5469,2277,5491,2277,5513,2272,5532,2262,5547,2253,5563,2239,5575,2221,5584,2236,5588,2247,5596,2254,5606,2261,5617,2265,5635,2267,5660L2271,5727C2272,5741,2274,5752,2277,5759,2280,5766,2285,5771,2290,5774L2290,5785,2226,5785C2221,5777,2217,5758,2215,5731,2215,5730,2215,5729,2215,5729L2212,5676C2210,5649,2204,5631,2194,5623,2185,5615,2161,5611,2122,5611L2034,5611,2034,5785,1978,5785,1978,5379Z"/>
		<path d="M2635,5634L2688,5634C2685,5683,2668,5723,2637,5752,2606,5781,2565,5796,2516,5796,2458,5796,2414,5777,2381,5738,2349,5699,2333,5645,2333,5576,2333,5513,2349,5462,2383,5425,2417,5388,2463,5369,2521,5369,2567,5369,2604,5381,2634,5404,2663,5428,2680,5460,2685,5501L2631,5501C2625,5474,2613,5454,2594,5440,2574,5425,2549,5418,2518,5418,2477,5418,2445,5432,2423,5461,2400,5490,2389,5531,2389,5583,2389,5633,2400,5672,2424,5702,2448,5732,2479,5747,2518,5747,2552,5747,2579,5737,2600,5716,2622,5695,2633,5668,2635,5634Z"/>
		<path d="M1497,6261L1545,6261C1546,6281,1554,6296,1566,6307,1579,6317,1597,6322,1620,6322,1641,6322,1658,6318,1670,6309,1682,6301,1689,6290,1689,6275,1689,6264,1685,6256,1679,6250,1673,6244,1661,6239,1644,6235L1588,6221C1557,6213,1535,6203,1523,6191,1511,6179,1505,6161,1505,6138,1505,6112,1514,6091,1534,6076,1554,6061,1581,6053,1615,6053,1651,6053,1679,6061,1699,6077,1720,6094,1731,6115,1731,6143L1731,6144,1683,6144C1681,6128,1675,6116,1663,6108,1652,6099,1636,6095,1616,6095,1596,6095,1580,6098,1570,6105,1560,6112,1555,6123,1555,6136,1555,6146,1558,6153,1564,6159,1571,6164,1583,6169,1601,6173L1649,6184C1683,6192,1706,6202,1719,6215,1732,6228,1739,6246,1739,6269,1739,6300,1728,6323,1706,6340,1684,6357,1654,6366,1615,6366,1577,6366,1548,6357,1528,6339,1508,6321,1497,6295,1497,6261Z"/>
		<path d="M1835,6183L1997,6183C1996,6155,1989,6134,1976,6119,1962,6104,1942,6096,1917,6096,1892,6096,1873,6103,1859,6118,1845,6133,1837,6155,1835,6183ZM1996,6262L2044,6262C2039,6295,2025,6320,2002,6339,1979,6358,1950,6367,1915,6367,1874,6367,1842,6353,1818,6326,1794,6298,1783,6260,1783,6213,1783,6162,1794,6123,1818,6095,1841,6066,1874,6052,1915,6052,1958,6052,1990,6065,2014,6091,2037,6117,2049,6154,2049,6202,2049,6208,2048,6213,2048,6215,2048,6218,2048,6221,2048,6224L1835,6224C1835,6255,1843,6279,1858,6296,1873,6313,1894,6322,1920,6322,1940,6322,1957,6317,1970,6306,1983,6296,1992,6281,1996,6262Z"/>
		<path d="M2106,6357L2106,6062,2154,6062,2154,6116C2162,6096,2172,6081,2186,6071,2199,6061,2216,6056,2236,6056,2239,6056,2242,6056,2244,6056,2245,6056,2247,6056,2249,6057L2249,6110C2247,6109,2246,6109,2244,6109,2242,6109,2240,6109,2237,6109,2210,6109,2190,6116,2176,6131,2162,6145,2156,6166,2156,6193L2156,6357,2106,6357Z"/>
		<path d="M2364,6357C2328,6259,2292,6160,2256,6062,2273,6062,2291,6062,2308,6062,2336,6141,2363,6220,2390,6298,2417,6220,2444,6141,2471,6062,2488,6062,2506,6062,2524,6062,2488,6160,2452,6259,2417,6357,2399,6357,2381,6357,2364,6357Z"/>
		<path d="M2602,6183L2763,6183C2763,6155,2756,6134,2743,6119,2729,6104,2709,6096,2684,6096,2659,6096,2640,6103,2626,6118,2612,6133,2604,6155,2602,6183ZM2762,6262L2811,6262C2806,6295,2792,6320,2769,6339,2746,6358,2717,6367,2682,6367,2641,6367,2609,6353,2585,6326,2561,6298,2550,6260,2550,6213,2550,6162,2561,6123,2585,6095,2608,6066,2641,6052,2682,6052,2725,6052,2757,6065,2781,6091,2804,6117,2816,6154,2816,6202,2816,6208,2815,6213,2815,6215,2815,6218,2815,6221,2815,6224L2602,6224C2602,6255,2610,6279,2625,6296,2640,6313,2660,6322,2687,6322,2707,6322,2724,6317,2737,6306,2750,6296,2759,6281,2762,6262Z"/>
		<path d="M2873,6357L2873,6062,2921,6062,2921,6116C2929,6096,2939,6081,2953,6071,2966,6061,2983,6056,3003,6056,3006,6056,3009,6056,3011,6056,3012,6056,3014,6056,3016,6057L3016,6110C3014,6109,3013,6109,3011,6109,3009,6109,3007,6109,3004,6109,2977,6109,2957,6116,2943,6131,2929,6145,2923,6166,2923,6193L2923,6357,2873,6357Z"/>
		<path d="M6000,4100L5698,4194,5815,4356,6000,4100Z"/>
		<path d="M3500,5900L3802,5806,3685,5644,3500,5900Z"/>
		<path d="M11200,3900L10900,3800,10900,4000,11200,3900Z"/>
		<path d="M9600,3900L9900,4000,9900,3800,9600,3900Z"/>
		<path d="M8700,6200L8800,5900,8600,5900,8700,6200Z"/>
		<path d="M12000,4900L11900,5200,12100,5200,12000,4900Z"/>
		<path d="M7657,1482C7657,1313,7657,1143,7657,974,7708,974,7760,974,7811,974,7845,1103,7879,1232,7912,1361,7945,1232,7979,1103,8012,974,8064,974,8115,974,8167,974,8167,1143,8167,1313,8167,1482,8134,1482,8102,1482,8069,1482,8069,1345,8069,1209,8069,1072,8035,1209,8000,1345,7966,1482,7930,1482,7895,1482,7859,1482,7824,1345,7790,1209,7755,1072,7755,1209,7755,1345,7755,1482,7722,1482,7690,1482,7657,1482Z"/>
		<path d="M8482,1435C8469,1455,8452,1469,8432,1480,8412,1490,8388,1495,8361,1495,8324,1495,8296,1485,8277,1464,8257,1443,8247,1414,8247,1376,8247,1340,8257,1313,8276,1295,8296,1276,8329,1264,8374,1257,8384,1255,8398,1253,8415,1251,8457,1246,8479,1233,8479,1214,8479,1199,8474,1188,8464,1182,8455,1175,8439,1172,8417,1172,8397,1172,8381,1176,8370,1184,8359,1192,8354,1204,8354,1218L8354,1224,8260,1224,8260,1217C8260,1179,8274,1149,8301,1127,8328,1105,8365,1094,8413,1094,8466,1094,8506,1103,8534,1121,8562,1139,8576,1165,8576,1200L8576,1412C8576,1428,8578,1440,8581,1447,8584,1455,8589,1461,8597,1465L8597,1482,8493,1482C8489,1476,8487,1468,8485,1460,8483,1453,8482,1444,8482,1435ZM8480,1297C8464,1305,8445,1311,8424,1315,8402,1320,8391,1322,8391,1323,8373,1328,8361,1334,8354,1342,8347,1349,8343,1360,8343,1373,8343,1387,8347,1398,8356,1406,8365,1414,8378,1418,8393,1418,8420,1418,8441,1410,8457,1395,8472,1380,8480,1359,8480,1333L8480,1297Z"/>
		<path d="M8665,1482L8665,1107,8760,1107,8760,1149C8774,1132,8790,1119,8807,1110,8824,1101,8843,1097,8864,1097,8888,1097,8908,1101,8925,1110,8942,1119,8957,1133,8969,1152,8982,1134,8998,1120,9015,1111,9033,1102,9053,1097,9075,1097,9113,1097,9143,1108,9165,1130,9187,1152,9198,1182,9198,1220L9198,1482,9099,1482,9099,1241C9099,1223,9094,1209,9084,1199,9075,1189,9061,1184,9044,1184,9024,1184,9009,1190,8997,1203,8986,1216,8980,1233,8980,1255L8980,1482,8882,1482,8882,1242C8882,1223,8877,1209,8868,1199,8858,1189,8845,1184,8827,1184,8808,1184,8792,1190,8781,1203,8770,1216,8764,1234,8764,1256L8764,1482,8665,1482Z"/>
		<path d="M9295,1482C9295,1313,9295,1143,9295,974,9330,974,9364,974,9399,974,9399,1143,9399,1313,9399,1482,9364,1482,9330,1482,9295,1482Z"/>
		<path d="M9611,1196L9734,1196C9761,1196,9781,1191,9793,1180,9806,1169,9812,1152,9812,1129,9812,1107,9806,1090,9794,1079,9781,1068,9763,1062,9739,1062L9611,1062,9611,1196ZM9507,1482L9507,974,9753,974C9809,974,9850,986,9876,1009,9903,1033,9916,1069,9916,1118,9916,1149,9910,1175,9897,1196,9884,1216,9865,1230,9841,1238,9863,1246,9879,1258,9888,1274,9897,1290,9903,1315,9904,1349L9906,1409C9906,1410,9906,1410,9906,1411,9907,1442,9913,1460,9926,1466L9926,1482,9811,1482C9808,1475,9805,1466,9803,1456,9801,1445,9800,1433,9799,1418L9798,1365C9797,1333,9791,1312,9780,1301,9769,1290,9750,1284,9722,1284L9611,1284,9611,1482,9507,1482Z"/>
		<path d="M10453,1308C10449,1366,10427,1411,10386,1445,10346,1479,10293,1496,10228,1496,10153,1496,10094,1473,10053,1426,10011,1379,9990,1313,9990,1229,9990,1142,10011,1076,10054,1030,10096,984,10157,961,10237,961,10302,961,10353,977,10390,1008,10428,1040,10448,1084,10452,1142L10349,1142C10345,1113,10333,1092,10314,1077,10295,1062,10269,1054,10237,1054,10191,1054,10157,1069,10133,1099,10109,1128,10097,1172,10097,1229,10097,1284,10109,1327,10133,1357,10156,1387,10190,1402,10234,1402,10266,1402,10292,1394,10312,1378,10332,1362,10345,1338,10351,1308L10453,1308Z"/>
		<path d="M10942,1435C10929,1455,10912,1469,10892,1480,10872,1490,10848,1495,10821,1495,10784,1495,10756,1485,10737,1464,10717,1443,10707,1414,10707,1376,10707,1340,10717,1313,10736,1295,10756,1276,10789,1264,10834,1257,10844,1255,10858,1253,10875,1251,10917,1246,10939,1233,10939,1214,10939,1199,10934,1188,10924,1182,10915,1175,10899,1172,10877,1172,10857,1172,10841,1176,10830,1184,10819,1192,10814,1204,10814,1218L10814,1224,10720,1224,10720,1217C10720,1179,10734,1149,10761,1127,10788,1105,10825,1094,10873,1094,10926,1094,10966,1103,10994,1121,11022,1139,11036,1165,11036,1200L11036,1412C11036,1428,11038,1440,11041,1447,11044,1455,11049,1461,11057,1465L11057,1482,10953,1482C10949,1476,10947,1468,10945,1460,10943,1453,10942,1444,10942,1435ZM10940,1297C10924,1305,10905,1311,10884,1315,10862,1320,10851,1322,10851,1323,10833,1328,10821,1334,10814,1342,10807,1349,10803,1360,10803,1373,10803,1387,10807,1398,10816,1406,10825,1414,10838,1418,10853,1418,10880,1418,10901,1410,10917,1395,10932,1380,10940,1359,10940,1333L10940,1297Z"/>
		<path d="M11125,1482L11125,1107,11218,1107,11218,1171C11231,1146,11246,1127,11264,1115,11281,1103,11302,1097,11326,1097,11330,1097,11333,1097,11336,1097,11338,1097,11340,1097,11341,1098L11341,1199,11308,1199C11280,1199,11260,1206,11246,1220,11232,1235,11225,1256,11225,1284L11225,1482,11125,1482Z"/>
		<path d="M11622,1341L11721,1341C11717,1389,11700,1426,11669,1454,11638,1481,11599,1495,11551,1495,11497,1495,11454,1477,11423,1442,11392,1406,11377,1357,11377,1294,11377,1232,11393,1183,11424,1147,11456,1112,11499,1094,11555,1094,11603,1094,11642,1107,11671,1133,11700,1158,11717,1194,11720,1240L11620,1240C11617,1220,11610,1205,11599,1194,11588,1183,11573,1178,11555,1178,11530,1178,11512,1188,11499,1207,11487,1227,11481,1256,11481,1295,11481,1332,11487,1359,11500,1379,11513,1398,11531,1408,11555,1408,11574,1408,11589,1402,11600,1391,11611,1380,11619,1363,11622,1341Z"/>
		<path d="M11787,1482L11787,974,11887,974,11887,1148C11901,1131,11917,1118,11935,1110,11954,1101,11975,1097,11998,1097,12020,1097,12040,1101,12058,1108,12076,1116,12090,1127,12101,1141,12109,1150,12114,1161,12117,1173,12120,1185,12122,1205,12122,1231L12122,1238,12122,1482,12022,1482,12022,1285C12022,1239,12018,1210,12009,1198,12001,1186,11986,1180,11964,1180,11940,1180,11921,1187,11908,1201,11894,1215,11887,1235,11887,1259L11887,1482,11787,1482Z"/>
		<path d="M12215,1065C12215,1035,12215,1004,12215,974,12248,974,12282,974,12315,974,12315,1004,12315,1035,12315,1065,12282,1065,12248,1065,12215,1065ZM12215,1482C12215,1357,12215,1232,12215,1107,12248,1107,12282,1107,12315,1107,12315,1232,12315,1357,12315,1482,12282,1482,12248,1482,12215,1482Z"/>
		<path d="M12569,1485C12560,1485,12549,1486,12536,1486,12523,1487,12515,1487,12512,1487,12474,1487,12447,1480,12433,1465,12419,1451,12412,1422,12412,1380L12412,1177,12362,1177,12362,1107,12412,1107,12412,1005,12511,1005,12511,1107,12569,1107,12569,1177,12511,1177,12511,1385C12511,1395,12513,1401,12518,1404,12522,1407,12531,1409,12544,1409L12569,1409,12569,1485Z"/>
		<path d="M12858,1368L12958,1368C12948,1408,12927,1439,12897,1461,12866,1484,12829,1495,12785,1495,12730,1495,12687,1477,12656,1440,12624,1404,12608,1355,12608,1292,12608,1231,12624,1183,12655,1147,12686,1112,12729,1094,12783,1094,12841,1094,12885,1111,12916,1146,12947,1181,12963,1231,12963,1295,12963,1302,12963,1307,12963,1311,12963,1314,12962,1318,12962,1321L12712,1321C12713,1350,12721,1373,12734,1388,12746,1403,12765,1410,12789,1410,12807,1410,12821,1407,12832,1400,12843,1393,12852,1382,12858,1368ZM12712,1255L12859,1255C12858,1230,12851,1211,12839,1198,12826,1185,12809,1178,12785,1178,12763,1178,12746,1185,12734,1198,12721,1211,12714,1230,12712,1255Z"/>
		<path d="M13256,1341L13355,1341C13351,1389,13334,1426,13303,1454,13272,1481,13233,1495,13185,1495,13131,1495,13088,1477,13057,1442,13026,1406,13011,1357,13011,1294,13011,1232,13027,1183,13058,1147,13090,1112,13133,1094,13189,1094,13237,1094,13276,1107,13305,1133,13334,1158,13351,1194,13354,1240L13254,1240C13251,1220,13244,1205,13233,1194,13222,1183,13207,1178,13189,1178,13164,1178,13146,1188,13133,1207,13121,1227,13115,1256,13115,1295,13115,1332,13121,1359,13134,1379,13147,1398,13165,1408,13189,1408,13208,1408,13223,1402,13234,1391,13245,1380,13253,1363,13256,1341Z"/>
		<path d="M13585,1485C13576,1485,13565,1486,13552,1486,13539,1487,13531,1487,13528,1487,13490,1487,13463,1480,13449,1465,13435,1451,13428,1422,13428,1380L13428,1177,13378,1177,13378,1107,13428,1107,13428,1005,13527,1005,13527,1107,13585,1107,13585,1177,13527,1177,13527,1385C13527,1395,13529,1401,13534,1404,13538,1407,13547,1409,13560,1409L13585,1409,13585,1485Z"/>
		<path d="M13976,1107L13976,1482,13878,1482,13878,1438C13864,1456,13847,1469,13828,1478,13809,1487,13788,1492,13764,1492,13723,1492,13692,1481,13672,1460,13651,1438,13641,1406,13641,1363L13641,1107,13741,1107,13741,1334C13741,1360,13745,1380,13754,1391,13763,1402,13778,1408,13799,1408,13822,1408,13841,1401,13855,1387,13869,1373,13876,1353,13876,1329L13876,1107,13976,1107Z"/>
		<path d="M14067,1482L14067,1107,14160,1107,14160,1171C14173,1146,14188,1127,14206,1115,14223,1103,14244,1097,14268,1097,14272,1097,14275,1097,14278,1097,14280,1097,14282,1097,14283,1098L14283,1199,14250,1199C14222,1199,14202,1206,14188,1220,14174,1235,14167,1256,14167,1284L14167,1482,14067,1482Z"/>
		<path d="M14569,1368L14669,1368C14659,1408,14638,1439,14608,1461,14577,1484,14540,1495,14496,1495,14441,1495,14398,1477,14367,1440,14335,1404,14319,1355,14319,1292,14319,1231,14335,1183,14366,1147,14397,1112,14440,1094,14494,1094,14552,1094,14596,1111,14627,1146,14658,1181,14674,1231,14674,1295,14674,1302,14674,1307,14674,1311,14674,1314,14673,1318,14673,1321L14423,1321C14424,1350,14432,1373,14445,1388,14457,1403,14476,1410,14500,1410,14518,1410,14532,1407,14543,1400,14554,1393,14563,1382,14569,1368ZM14423,1255L14570,1255C14569,1230,14562,1211,14550,1198,14537,1185,14520,1178,14496,1178,14474,1178,14457,1185,14445,1198,14432,1211,14425,1230,14423,1255Z"/>
		<path d="M17300,2000L16996,2086,17108,2251,17300,2000Z"/>
		<path d="M14800,3700L15104,3614,14992,3449,14800,3700Z"/>
		<path d="M17300,5800L17122,5539,17001,5698,17300,5800Z"/>
		<path d="M14800,3900L14978,4161,15099,4002,14800,3900Z"/>
	</g>
	<g stroke="#000000" stroke-linejoin="round" stroke-width="50">
		<path d="M6333,2900C6166,2900,6000,3066,6000,3233,6000,3678,6000,4122,6000,4567,6000,4734,6166,4901,6333,4901,7311,4901,8289,4901,9267,4901,9433,4901,9600,4734,9600,4567,9600,4122,9600,3678,9600,3233,9600,3066,9433,2900,9267,2900,8289,2900,7311,2900,6333,2900Z"/>
		<path d="M11533,2900C11366,2900,11200,3066,11200,3233,11200,3678,11200,4122,11200,4567,11200,4734,11366,4901,11533,4901,12511,4901,13489,4901,14467,4901,14633,4901,14800,4734,14800,4567,14800,4122,14800,3678,14800,3233,14800,3066,14633,2900,14467,2900,13489,2900,12511,2900,11533,2900Z"/>
		<path d="M8150,6200C8025,6200,7900,6325,7900,6450,7900,6783,7900,7117,7900,7450,7900,7575,8025,7701,8150,7701,9617,7701,11083,7701,12550,7701,12675,7701,12801,7575,12801,7450,12801,7117,12801,6783,12801,6450,12801,6325,12675,6200,12550,6200,11083,6200,9617,6200,8150,6200Z"/>
		<path d="M1300,1000C1150,1000,1000,1150,1000,1300,1000,1700,1000,2100,1000,2500,1000,2650,1150,2800,1300,2800,1933,2800,2567,2800,3200,2800,3350,2800,3501,2650,3501,2500,3501,2100,3501,1700,3501,1300,3501,1150,3350,1000,3200,1000,2567,1000,1933,1000,1300,1000Z"/>
		<path d="M17633,1000C17466,1000,17300,1166,17300,1333,17300,1778,17300,2222,17300,2667,17300,2834,17466,3001,17633,3001,18744,3001,19856,3001,20967,3001,21133,3001,21300,2834,21300,2667,21300,2222,21300,1778,21300,1333,21300,1166,21133,1000,20967,1000,19856,1000,18744,1000,17633,1000Z"/>
		<path d="M17633,4800C17466,4800,17300,4966,17300,5133,17300,5578,17300,6022,17300,6467,17300,6634,17466,6801,17633,6801,18744,6801,19856,6801,20967,6801,21133,6801,21300,6634,21300,6467,21300,6022,21300,5578,21300,5133,21300,4966,21133,4800,20967,4800,19856,4800,18744,4800,17633,4800Z"/>
		<path d="M5767,3532L3733,2068"/>
		<path d="M1300,5000C1150,5000,1000,5150,1000,5300,1000,5700,1000,6100,1000,6500,1000,6650,1150,6800,1300,6800,1933,6800,2567,6800,3200,6800,3350,6800,3501,6650,3501,6500,3501,6100,3501,5700,3501,5300,3501,5150,3350,5000,3200,5000,2567,5000,1933,5000,1300,5000Z"/>
		<path d="M5767,4268L3733,5732"/>
		<path d="M10913,3900L9887,3900"/>
		<path d="M8700,4900L8700,5913"/>
		<path d="M12000,6200L12000,5187"/>
		<path d="M17063,2161L15037,3539"/>
		<path d="M17072,5627L15028,4073"/>
	</g>
</svg>
